PathFileType	4	(X/Y/Z)	/Users/niels/Desktop/University/Third Semester/Perception and Action/Exam/Gymnastics Motion Tracking/Code for Gym Tracking/Scripts/Analyzed Data/Start Salto/st_salto_good_id12_1_Sports2D/st_salto_good_id12_1_Sports2D_px_person00.trc
DataRate	CameraRate	NumFrames	NumMarkers	Units	OrigDataRate	OrigDataStartFrame	OrigNumFrames
29.83050847457627	29.83050847457627	8	22	m	29.83050847457627	88	177
Frame#	Time	Hip			RHip			RKnee			RAnkle			RBigToe			RSmallToe			RHeel			LHip			LKnee			LAnkle			LBigToe			LSmallToe			LHeel			Neck			Head			Nose			RShoulder			RElbow			RWrist			LShoulder			LElbow			LWrist		
		X1	Y1	Z1	X2	Y2	Z2	X3	Y3	Z3	X4	Y4	Z4	X5	Y5	Z5	X6	Y6	Z6	X7	Y7	Z7	X8	Y8	Z8	X9	Y9	Z9	X10	Y10	Z10	X11	Y11	Z11	X12	Y12	Z12	X13	Y13	Z13	X14	Y14	Z14	X15	Y15	Z15	X16	Y16	Z16	X17	Y17	Z17	X18	Y18	Z18	X19	Y19	Z19	X20	Y20	Z20	X21	Y21	Z21	X22	Y22	Z22
88	2.95	1.257222728806093	-0.30330230159327964	0.0	1.2590141592891384	-0.30146302064424063	0.0	1.2178307363650585	-0.15693133873754656	0.0	1.2623400406542287	-0.04160831396639194	0.0	1.336497875578501	-0.013719255919810283	0.0	1.2781590926750812	-0.028089500763627838	0.0	1.2959465158859746	-0.052786761091459494	0.0	1.2548977478052887	-0.2957995242125207	0.0	1.2219532903583126	-0.1637450922385986	0.0	1.3660981697960415	-0.14754984622903233	0.0	1.404025964309957	-0.08624113311563837	0.0	1.410325659178225	-0.09809197999476153	0.0	1.395474328409535	-0.1586714476917166	0.0	1.0746480992210836	-0.3710286932623981	0.0	0.9905754031869161	-0.33433342974298624	0.0	1.05187114093356	-0.31701032696789067	0.0	1.089388740923116	-0.38396437517216875	0.0	1.1757548981739214	-0.358827558803033	0.0	1.1329084572220234	-0.27897635138219967	0.0	1.0894960068720307	-0.36933029926567057	0.0	1.1663822339699204	-0.34991195714651685	0.0	1.1348872891385926	-0.28704027334623294	0.0
89	2.983522727272727	1.2669600302444939	-0.3074781306865045	0.0	1.2689971583676087	-0.3060578087948437	0.0	1.2383058739993622	-0.15961117632539668	0.0	1.2976772546838389	-0.05690344515157326	0.0	1.3558661478122573	-0.019328814484132775	0.0	1.322045183633883	-0.031908917915053174	0.0	1.3266147381158802	-0.06302213374709373	0.0	1.264676021940055	-0.30067312797445295	0.0	1.2414088945007922	-0.167549375089282	0.0	1.3819110421852117	-0.16470015259134763	0.0	1.4263162433322831	-0.10791277096297164	0.0	1.432612007587939	-0.11804027615572431	0.0	1.41635317199007	-0.17718343238608847	0.0	1.080460695105696	-0.3658266186918234	0.0	0.9993165768247741	-0.32215250919163513	0.0	1.0629599787282553	-0.30997096459072176	0.0	1.0943695959164403	-0.3785860556739253	0.0	1.1794433057851215	-0.3560159688989653	0.0	1.138519119242073	-0.2760036409894813	0.0	1.0946079438801335	-0.36915992037787854	0.0	1.1704279030853684	-0.3481831224613697	0.0	1.1401337646279386	-0.2852896815640875	0.0
90	3.0170454545454546	1.2761769619663357	-0.31212705696366105	0.0	1.2786484561648421	-0.3108611537041126	0.0	1.2592306668883395	-0.16301808479614888	0.0	1.3329444753007753	-0.06946439273940667	0.0	1.3709361565043678	-0.02234991751296569	0.0	1.35985368682937	-0.03309670942684559	0.0	1.359584731512575	-0.07163281904662908	0.0	1.27389916988119	-0.30585721758312207	0.0	1.2615621919360382	-0.17172517131639053	0.0	1.3992698221632067	-0.18273591905599573	0.0	1.4477886563642182	-0.12954880727426202	0.0	1.45375727597989	-0.13834605541217992	0.0	1.4362106399570949	-0.19642817604286059	0.0	1.0865516346633362	-0.3602723167771168	0.0	1.0083240855646567	-0.3105988639440847	0.0	1.0737796652736418	-0.3034512227526069	0.0	1.0995241425878333	-0.3728658808039522	0.0	1.1831116880865762	-0.3534692670936243	0.0	1.1443685853808816	-0.27370388498467146	0.0	1.099694684008998	-0.36811822422740603	0.0	1.1743286287891557	-0.34645693683321416	0.0	1.1457517076626489	-0.2836559021991479	0.0
91	3.050568181818182	1.2843769777891052	-0.3170797947476777	0.0	1.2873969938553145	-0.3156102553288484	0.0	1.2803191652666843	-0.1666830762692159	0.0	1.3672742473989747	-0.07681212470444511	0.0	1.3848866267023938	-0.021004379937724173	0.0	1.3899785986563664	-0.030299964452713195	0.0	1.3910252137590102	-0.0763403058999221	0.0	1.2823161449316143	-0.31095629281346326	0.0	1.2825839544680755	-0.17616798039253265	0.0	1.4193502578688524	-0.20137681532036217	0.0	1.4687307167053232	-0.15097328627276144	0.0	1.4740558937138641	-0.15853796205823162	0.0	1.4544620193038786	-0.21615236179542102	0.0	1.0926170244806264	-0.35447960251417654	0.0	1.0174853111329119	-0.3000143596081527	0.0	1.0838723057990032	-0.2974821400867242	0.0	1.1046173749854797	-0.3670279750292453	0.0	1.1866723498538596	-0.35125712322885816	0.0	1.1503184000300872	-0.2720969035431083	0.0	1.1047933843463322	-0.3655159310274419	0.0	1.1781142408227898	-0.3444550431230577	0.0	1.1518692359074403	-0.2820046411704369	0.0
92	3.084090909090909	1.2915485893802212	-0.32239724975541295	0.0	1.2951123336044121	-0.3203167332499512	0.0	1.301672590439342	-0.17048615044353577	0.0	1.400445802133095	-0.08147069508088897	0.0	1.402356662466788	-0.018014010731608673	0.0	1.416168945498916	-0.02644837195441985	0.0	1.420632052136236	-0.08001277566351346	0.0	1.2901232067767037	-0.31588841857780353	0.0	1.304882035666797	-0.18120835024628404	0.0	1.4410090269420193	-0.22063062584428716	0.0	1.4894654527308278	-0.1726424293458001	0.0	1.4937946533616533	-0.17907763620501738	0.0	1.471052970082467	-0.23645844938073862	0.0	1.0985853352958237	-0.3486318767791811	0.0	1.027046014262494	-0.2903565399453876	0.0	1.093474191183859	-0.2919097382274674	0.0	1.1095983881136953	-0.361238473403238	0.0	1.1901758599378456	-0.3492568667148169	0.0	1.1562845975110942	-0.27103844925494885	0.0	1.1100622297502638	-0.36136676808218743	0.0	1.1819841812240013	-0.3420396798239656	0.0	1.1584917571957862	-0.2802480841588241	0.0
93	3.1176136363636364	1.2980538582389243	-0.32827675461984834	0.0	1.3020256854829448	-0.32522850213798565	0.0	1.3233907295246845	-0.17472091954893804	0.0	1.4325641486969392	-0.08799683507847346	0.0	1.4265960070632357	-0.017985785207793085	0.0	1.44319399271481	-0.026274552403897776	0.0	1.449920936581356	-0.0872425466958759	0.0	1.2977643036842295	-0.3209090219685151	0.0	1.3283505588043107	-0.18751668125640045	0.0	1.4621869642029317	-0.24056296168567598	0.0	1.5100333197598474	-0.19550902191683853	0.0	1.5130583892245404	-0.20103097437504397	0.0	1.4863896703001391	-0.25757969711712725	0.0	1.1046799741627624	-0.3429173047401598	0.0	1.0373124451646694	-0.2814305281462964	0.0	1.103173274039094	-0.28644748855786595	0.0	1.1145505305479233	-0.3556728666602829	0.0	1.1937453760265329	-0.3472146303807648	0.0	1.1622112036729353	-0.2702786924467841	0.0	1.1156976872459383	-0.35633687721994917	0.0	1.1862650516561117	-0.33941466960453565	0.0	1.1655140215457238	-0.2784844318155778	0.0
94	3.151136363636364	1.3042908834221492	-0.33471080478983356	0.0	1.3084400787891073	-0.3305309020213613	0.0	1.3451109953452693	-0.17982878012621856	0.0	1.463424968495833	-0.09892343644689278	0.0	1.4569991604325532	-0.023573064288472726	0.0	1.4727489857451528	-0.03240604567825502	0.0	1.47936857971001	-0.10002830256164993	0.0	1.3056005755794908	-0.32626272358665653	0.0	1.3520330237705633	-0.19561971730025823	0.0	1.4816041360269034	-0.2609179260430336	0.0	1.5299401585087515	-0.2201637471542661	0.0	1.5314967145733778	-0.2250814997325329	0.0	1.5007521439410736	-0.27929704225494684	0.0	1.1111694159173577	-0.337539202866441	0.0	1.0483172417482511	-0.2731412091019372	0.0	1.113353858854583	-0.28088467336306777	0.0	1.1195049866935936	-0.35063490576278394	0.0	1.1973744575033398	-0.3449502014394942	0.0	1.1679890276348532	-0.2695689430486926	0.0	1.121825430505598	-0.3512574165655832	0.0	1.191134041916142	-0.33697430947406887	0.0	1.1726893087610444	-0.2769824767253797	0.0
95	3.184659090909091	1.3105763154470451	-0.3413197140454861	0.0	1.3146879069401747	-0.3361355222112165	0.0	1.3662479301027741	-0.186173588197472	0.0	1.4926081287310677	-0.11440009825488102	0.0	1.4906305176161683	-0.03509315754576661	0.0	1.5039778936005925	-0.04497744548201984	0.0	1.5083109385855948	-0.11784332729804259	0.0	1.3138154421397508	-0.33187451452820593	0.0	1.3746697757790118	-0.20546279965738934	0.0	1.4988090352581447	-0.2812759439189958	0.0	1.5485288200954639	-0.24616155816024535	0.0	1.548641989806956	-0.2508699445241612	0.0	1.5140733756472866	-0.30094285548809296	0.0	1.1181426745749625	-0.3326391727037439	0.0	1.0598430486477113	-0.2654724159771409	0.0	1.1240311798729012	-0.27523344873001626	0.0	1.1244140986406375	-0.3464356725408095	0.0	1.200861190554359	-0.34247674659199134	0.0	1.173548475021812	-0.26877127137093054	0.0	1.1285331809602597	-0.34656799321548337	0.0	1.196502781127474	-0.3349040818283262	0.0	1.1797159889014206	-0.2759769420434011	0.0
